<svg xmlns="http://www.w3.org/2000/svg" width="600" height="600" viewBox="0 0 600 600" version="1.1">
	<path d="M 221.500 118.011 C 220.400 118.487, 200.050 138.366, 176.277 162.188 C 152.505 186.010, 128.953 209.550, 123.939 214.500 C 118.926 219.450, 114.414 224.541, 113.913 225.814 C 112.698 228.897, 113.870 290.179, 115.169 291.500 C 115.819 292.161, 121.250 287.250, 131.204 277 C 139.483 268.475, 156.661 250.919, 169.378 237.986 C 182.095 225.054, 201.708 205.029, 212.962 193.486 C 224.215 181.944, 242.457 163.275, 253.498 152 C 284.208 120.641, 285.657 119.024, 283.975 117.984 C 282.119 116.838, 224.156 116.862, 221.500 118.011 M 319.459 117.629 C 316.999 118.570, 114.997 321.226, 114.969 322.781 C 114.714 337.058, 115.179 378.657, 115.633 382.171 L 116.237 386.842 170.868 386.481 C 200.916 386.283, 246.338 386.094, 271.806 386.060 L 318.112 386 325.306 379.250 C 338.839 366.552, 364.384 340.050, 363.725 339.391 C 363.174 338.841, 317.544 338.497, 187.177 338.061 C 171.759 338.010, 168.905 337.771, 169.177 336.559 C 169.355 335.766, 217.762 286.694, 276.750 227.510 C 335.738 168.326, 384 119.475, 384 118.952 C 384 118.428, 382.762 117.976, 381.250 117.946 C 359.856 117.528, 320.255 117.325, 319.459 117.629 M 114.500 120.973 L 111.500 121.527 111.783 151.013 C 112.051 178.872, 112.705 197.039, 113.469 197.802 C 113.656 197.990, 129.940 181.844, 149.655 161.922 C 169.370 142, 186.367 124.872, 187.427 123.861 C 188.487 122.849, 189.148 121.815, 188.897 121.563 C 188.217 120.884, 117.999 120.327, 114.500 120.973 M 378.126 379.610 C 331.867 426.146, 294.266 464.621, 294.568 465.110 C 294.871 465.600, 308.704 465.999, 325.309 465.997 L 355.500 465.994 364.504 457.247 C 369.457 452.436, 393.869 428.511, 418.754 404.081 L 464 359.661 464 327.331 C 464 309.304, 463.609 295, 463.117 295 C 462.632 295, 424.386 333.075, 378.126 379.610 M 425.200 427.802 C 404.697 447.986, 387.939 464.843, 387.961 465.262 C 387.982 465.681, 404.988 465.906, 425.750 465.762 L 463.500 465.500 463.747 429.656 C 463.883 409.941, 463.653 393.202, 463.236 392.458 C 462.700 391.499, 451.602 401.812, 425.200 427.802 M 153.875 395.750 C 153.806 396.163, 153.693 399.650, 153.625 403.500 L 153.500 410.500 149.191 410.810 C 145.596 411.069, 144.561 410.712, 142.942 408.654 C 140.549 405.611, 137.947 406.086, 134.488 410.196 C 131.333 413.946, 131.337 415.795, 134.500 416.589 C 138.556 417.607, 137.362 419, 132.434 419 C 126.483 419, 124.020 417.616, 123.921 414.215 L 123.842 411.500 122.888 414.099 C 120.699 420.061, 125.075 423.899, 132.660 422.668 C 140.058 421.467, 144.062 415.807, 138.500 414.411 C 135.506 413.659, 135.301 412.444, 137.933 411.036 C 139.536 410.178, 140.224 410.505, 141.972 412.961 C 144.023 415.840, 144.263 415.908, 150.924 415.468 C 156.165 415.123, 158.057 415.364, 158.998 416.497 C 159.674 417.312, 160.626 417.731, 161.113 417.430 C 162.858 416.352, 161.949 413.828, 158.890 411.254 C 156.012 408.833, 155.816 408.267, 156.258 403.670 C 156.779 398.249, 156.264 395, 154.883 395 C 154.398 395, 153.944 395.337, 153.875 395.750 M 167.250 396.145 C 166.441 396.957, 166 400.483, 166 406.133 C 166 416.447, 165.466 416.051, 178.500 415.402 C 186.879 414.986, 189.525 414.978, 196 415.355 C 198.305 415.489, 198.524 415.121, 198.809 410.647 C 199.042 406.993, 198.795 405.903, 197.809 406.235 C 197.089 406.477, 196.486 407.624, 196.470 408.784 C 196.430 411.594, 195.562 412.313, 193.137 411.544 C 191.928 411.160, 190.976 409.824, 190.755 408.202 L 190.386 405.500 189.218 408.250 C 188.188 410.675, 187.513 411, 183.506 411 C 179.158 411, 178.989 410.892, 179.589 408.500 C 179.934 407.125, 179.932 406, 179.584 406 C 179.235 406, 178.523 407.125, 178 408.500 C 177.206 410.589, 176.395 411, 173.065 411 L 169.081 411 168.790 402.945 C 168.558 396.497, 168.251 395.140, 167.250 396.145 M 300.818 401.512 C 300.541 405.874, 299.841 408.587, 298.702 409.727 C 297.099 411.329, 297 411.192, 297 407.381 C 297 404.205, 296.264 402.490, 293.584 399.417 C 290.999 396.452, 289.882 395.778, 288.991 396.644 C 287.226 398.357, 288.198 401.291, 290.992 402.683 C 294.294 404.329, 296 406.820, 296 409.994 C 296 412.058, 295.108 413.064, 291.750 414.790 L 287.500 416.974 291.500 416.360 C 295.842 415.694, 298.610 413.804, 299.542 410.868 C 300.250 408.636, 302 408.374, 302 410.500 C 302 413.994, 305.756 416, 312.300 416 C 315.765 416, 319.077 415.523, 319.660 414.940 C 320.832 413.768, 319.637 405.237, 318.084 403.684 C 316.753 402.353, 314.931 406.278, 316.054 408.054 C 316.558 408.849, 316.976 409.837, 316.985 410.250 C 317.010 411.496, 305.491 411.091, 304.200 409.800 C 303.502 409.102, 303 405.756, 303 401.800 C 303 393.129, 301.366 392.914, 300.818 401.512 M 248.292 397.337 C 247.294 398.951, 249.812 400.401, 251.369 399.109 C 252.374 398.274, 253.025 398.231, 253.480 398.968 C 254.318 400.323, 256.234 399.202, 255.719 397.658 C 255.279 396.336, 249.076 396.068, 248.292 397.337 M 224.002 399.357 C 217.415 402.070, 216.506 404.329, 221.185 406.352 C 223.008 407.141, 225.400 408.495, 226.500 409.361 C 228.365 410.830, 227.946 410.939, 220.309 410.968 C 215.804 410.986, 211.840 410.550, 211.500 410 C 210.487 408.361, 209 408.864, 209 410.845 C 209 411.860, 209.845 413.455, 210.878 414.390 C 212.587 415.936, 215.500 416.043, 243.128 415.569 C 273.781 415.044, 276.070 415.029, 281.500 415.333 C 284.436 415.496, 284.500 415.398, 284.500 410.750 C 284.500 405.369, 282.666 403.783, 282.187 408.750 C 281.875 411.984, 280.773 412.618, 277.589 411.396 C 276.483 410.971, 276.181 410.004, 276.575 408.146 C 277.114 405.605, 277.074 405.577, 275.568 407.441 C 274.706 408.509, 274 409.746, 274 410.191 C 274 410.636, 271.966 411, 269.481 411 C 265.160 411, 264.989 410.890, 265.589 408.500 C 265.971 406.979, 265.790 406, 265.127 406 C 264.528 406, 263.756 407.125, 263.411 408.500 C 262.444 412.351, 258.146 411.982, 257.346 407.979 C 256.639 404.447, 255.287 403.313, 253.688 404.912 C 252.837 405.763, 252.859 406.545, 253.775 408.011 C 255.626 410.976, 255.409 411.128, 249.809 410.802 C 244.883 410.515, 244.575 410.334, 243.780 407.250 C 243.320 405.462, 242.492 404, 241.940 404 C 240.368 404, 239.611 407.011, 240.867 408.267 C 242.975 410.375, 242.017 411, 236.750 410.955 C 231.994 410.915, 231.044 410.501, 226.652 406.565 L 221.804 402.220 225.322 401.059 C 227.257 400.420, 229.381 399.246, 230.042 398.449 C 231.656 396.504, 230.513 396.676, 224.002 399.357 M 310.188 419.063 C 310.428 419.784, 311.216 420.572, 311.938 420.813 C 312.688 421.063, 313.063 420.688, 312.813 419.938 C 312.572 419.216, 311.784 418.428, 311.063 418.188 C 310.313 417.938, 309.938 418.313, 310.188 419.063 M 314.565 418.895 C 314.260 419.388, 314.748 420.073, 315.649 420.419 C 317.596 421.166, 318.458 420.550, 317.541 419.067 C 316.737 417.766, 315.313 417.684, 314.565 418.895 M 235.446 420.087 C 234.416 421.755, 236.733 423.667, 238.113 422.287 C 239.267 421.133, 238.545 419, 237 419 C 236.515 419, 235.816 419.489, 235.446 420.087 M 240.476 420.039 C 239.468 421.669, 241.707 423.693, 243.042 422.358 C 243.766 421.634, 243.640 420.946, 242.631 420.109 C 241.557 419.218, 240.995 419.199, 240.476 420.039 M 314 423.417 C 314 424.288, 314.712 425, 315.583 425 C 317.349 425, 317.042 422.847, 315.188 422.229 C 314.534 422.011, 314 422.546, 314 423.417 M 131.193 437.564 C 128.179 439.693, 128.675 443.087, 132.250 444.795 C 136.205 446.685, 135.891 449.214, 131.750 448.814 C 129.400 448.587, 128.500 448.912, 128.500 449.986 C 128.500 453.327, 136.593 452.240, 137.929 448.720 C 138.951 446.026, 138.094 444.239, 135.031 442.677 C 132.044 441.153, 132.306 440.072, 135.750 439.714 C 139.230 439.352, 139.426 436.605, 136 436.217 C 134.625 436.061, 132.462 436.667, 131.193 437.564 M 144.113 443.042 C 141.851 446.966, 140 450.586, 140 451.088 C 140 452.608, 141.586 452.115, 143.500 450 C 144.495 448.900, 146.349 448, 147.620 448 C 148.906 448, 150.404 448.886, 151 450 C 152.687 453.152, 155.185 452.595, 154.360 449.250 C 152.868 443.198, 150.290 436.597, 149.287 436.262 C 148.703 436.068, 146.375 439.119, 144.113 443.042 M 159.520 437.250 C 159.291 437.938, 158.696 441.352, 158.199 444.838 C 157.192 451.901, 157.517 452.366, 163.078 451.820 C 167.416 451.395, 168.247 449, 164.055 449 L 160.944 449 161.610 442.500 C 162.089 437.826, 161.948 436, 161.107 436 C 160.463 436, 159.749 436.563, 159.520 437.250 M 170.166 443.245 C 169.575 447.230, 169.459 450.859, 169.910 451.310 C 171.151 452.551, 179.287 451.676, 179.756 450.250 C 180.033 449.406, 179.003 449, 176.583 449 C 173.667 449, 173 448.628, 173 447 C 173 445.381, 173.667 445, 176.500 445 C 178.944 445, 180 444.548, 180 443.500 C 180 442.500, 179 442, 177 442 C 175 442, 174 441.500, 174 440.500 C 174 439.452, 175.056 439, 177.500 439 C 179.944 439, 181 438.548, 181 437.500 C 181 436.372, 179.791 436, 176.121 436 L 171.242 436 170.166 443.245 M 184.696 438.196 C 184.395 439.463, 183.831 443.145, 183.443 446.377 C 182.872 451.138, 182.999 452.167, 184.113 451.796 C 184.869 451.544, 185.968 448.899, 186.555 445.919 C 187.671 440.255, 188.178 440.663, 189.458 448.250 C 189.806 450.313, 190.513 452, 191.029 452 C 191.546 452, 193.329 449.413, 194.993 446.250 L 198.017 440.500 197.377 446.377 C 196.872 451.021, 197.016 452.161, 198.064 451.812 C 199.581 451.306, 200.392 448.722, 201.377 441.250 C 202.042 436.202, 201.978 436, 199.705 436 C 197.848 436, 196.840 437.071, 195.001 440.997 C 193.714 443.745, 192.403 445.736, 192.088 445.421 C 191.773 445.106, 191.061 442.970, 190.507 440.674 C 189.760 437.579, 188.950 436.422, 187.372 436.196 C 185.843 435.978, 185.089 436.542, 184.696 438.196 M 205.642 436.770 C 205.381 437.193, 204.840 440.852, 204.441 444.901 C 203.843 450.969, 203.960 452.180, 205.108 451.800 C 206.477 451.346, 209.234 437.567, 208.169 436.502 C 207.427 435.760, 206.185 435.892, 205.642 436.770 M 218.520 437.250 C 217.416 440.558, 216.410 451.135, 217.155 451.596 C 218.605 452.492, 220 450.984, 220 448.520 C 220 446.665, 220.697 446.010, 223.250 445.464 C 227.553 444.544, 229 443.257, 229 440.353 C 229 438.694, 228.206 437.649, 226.435 436.975 C 222.877 435.622, 219.019 435.756, 218.520 437.250 M 232.721 437.283 C 232.433 438.036, 231.875 441.655, 231.482 445.326 L 230.767 452 235.384 452 C 238.725 452, 240 451.604, 240 450.566 C 240 449.746, 238.824 448.998, 237.250 448.816 C 234.347 448.482, 234.351 448.502, 235.315 438.608 C 235.534 436.364, 233.477 435.314, 232.721 437.283 M 245.250 443.478 C 242.912 447.580, 241 451.175, 241 451.468 C 241 452.882, 244.058 451.760, 245 450 C 245.692 448.706, 247.094 448, 248.968 448 C 250.987 448, 252.058 448.606, 252.500 450 C 253.161 452.083, 256 452.818, 256 450.905 C 256 448.060, 251.671 436.001, 250.653 436.011 C 250.019 436.016, 247.588 439.377, 245.250 443.478 M 260.939 438.061 C 258.307 440.693, 258.786 443.131, 262.262 444.797 C 266.207 446.688, 265.885 449.213, 261.750 448.814 C 259.388 448.586, 258.500 448.910, 258.500 450 C 258.500 452.493, 264.509 452.491, 267.003 449.997 C 269.704 447.296, 269.263 445.084, 265.620 443.066 C 262.233 441.189, 262.123 440.116, 265.275 439.698 C 266.526 439.532, 268.149 439.026, 268.882 438.573 C 269.987 437.890, 269.983 437.604, 268.857 436.890 C 266.520 435.409, 263.082 435.918, 260.939 438.061 M 271.667 436.667 C 270.371 437.962, 271.026 439, 273.138 439 C 275.171 439, 275.243 439.319, 274.610 445.500 C 274.062 450.848, 274.204 452, 275.411 452 C 276.406 452, 277.078 450.473, 277.502 447.250 C 277.846 444.637, 278.216 441.825, 278.324 441 C 278.432 440.175, 279.528 439.356, 280.760 439.180 C 281.992 439.005, 283 438.217, 283 437.430 C 283 436.369, 281.625 436, 277.667 436 C 274.733 436, 272.033 436.300, 271.667 436.667 M 285.892 436.167 C 285.833 436.350, 285.241 439.787, 284.576 443.804 C 283.434 450.701, 283.809 452.854, 285.922 451.548 C 286.658 451.093, 288.360 440.399, 288.190 437.287 C 288.150 436.546, 286.094 435.543, 285.892 436.167 M 292.923 438.923 C 286.145 445.701, 292.747 455.417, 301.094 450.950 C 304.032 449.377, 302.329 447.848, 298.449 448.576 C 295.477 449.133, 294.908 448.893, 293.885 446.647 C 292.928 444.546, 293.021 443.617, 294.400 441.512 C 295.735 439.475, 296.793 438.991, 299.506 439.173 C 303.414 439.437, 305.142 438.334, 302.971 436.961 C 300.062 435.121, 295.915 435.931, 292.923 438.923 M 221 441 C 221 442.646, 221.518 443.065, 223.250 442.820 C 224.488 442.644, 225.500 441.825, 225.500 441 C 225.500 440.175, 224.488 439.356, 223.250 439.180 C 221.518 438.935, 221 439.354, 221 441 M 147.157 442.707 C 145.656 445.512, 145.698 446, 147.441 446 C 149.387 446, 149.893 444.895, 149.032 442.522 C 148.331 440.592, 148.286 440.597, 147.157 442.707 M 248.605 442.588 C 247.647 445.084, 247.887 446, 249.500 446 C 250.325 446, 251 445.127, 251 444.059 C 251 441.544, 249.386 440.552, 248.605 442.588" stroke="none" fill="#f50000" fill-rule="evenodd"/>
</svg>